<?xml version="1.0" standalone="no"?>
<!DOCTYPE svg PUBLIC "-//W3C//DTD SVG 20010904//EN"
 "http://www.w3.org/TR/2001/REC-SVG-20010904/DTD/svg10.dtd">
<svg version="1.0" xmlns="http://www.w3.org/2000/svg"
 width="512.000000pt" height="512.000000pt" viewBox="0 0 512.000000 512.000000"
 preserveAspectRatio="xMidYMid meet">
<metadata>
Created by potrace 1.14, written by Peter Selinger 2001-2017
</metadata>
<g transform="translate(0.000000,512.000000) scale(0.100000,-0.100000)"
fill="#000000" stroke="none">
<path d="M2430 5113 c-131 -9 -273 -26 -364 -44 -1013 -199 -1805 -983 -2010
-1991 -37 -181 -49 -309 -50 -533 -1 -214 11 -323 60 -545 142 -636 528 -1196
1079 -1565 1101 -737 2576 -508 3411 531 229 285 419 679 498 1034 49 221 61
331 60 540 -2 224 -15 364 -50 537 -200 982 -953 1751 -1936 1977 -208 48
-503 73 -698 59z m231 -1091 c43 -22 59 -38 81 -81 l28 -53 0 -475 0 -474 75
-73 c55 -53 83 -90 107 -142 30 -63 33 -77 32 -159 0 -69 -6 -104 -23 -148
-45 -115 -157 -222 -270 -257 -277 -87 -551 113 -551 401 0 129 51 235 155
326 l55 47 0 477 0 477 28 53 c34 66 106 109 182 109 33 0 64 -9 101 -28z
m1670 -1263 c88 -30 142 -105 142 -199 0 -94 -54 -169 -142 -199 -24 -8 -204
-11 -601 -11 l-567 0 20 83 c22 94 19 223 -7 295 l-15 42 568 0 c398 0 578 -3
602 -11z"/>
<path d="M2489 2765 c-149 -47 -194 -255 -77 -361 106 -97 274 -69 338 56 63
122 4 267 -124 305 -60 18 -77 18 -137 0z"/>
</g>
</svg>
